#!OML:ASF E:\emotionWalksFemale\Project 1\Capture day 1\Session 1\Female1.ASF
:FULLY-SPECIFIED
:DEGREES
499
root 9.70022 15.2572 -10.7257 180.52 3.40287 -176.005
lowerback 4.32209 3.57174 5.76254
upperback -5.00401 5.44137 0.0642221
thorax -7.16212 2.45022 -3.70266
lowerneck -4.34954 -3.27836 -8.94694
upperneck 13.2408 -5.35214 9.11392
head 5.14885 -2.73291 3.98971
rclavicle 4.2043e-014 9.14409e-015
rhumerus -38.0252 15.06 -96.9823
rradius 37.58
rwrist 11.798
rhand 0.0338696 -52.8224
rfingers 7.12502
rthumb 25.6228 -81.1185
lclavicle 4.2043e-014 9.14409e-015
lhumerus -50.9076 -0.941994 85.1341
lradius 36.1614
lwrist -11.3138
lhand -7.55631 -32.4208
lfingers 7.12502
lthumb 18.3357 -3.26496
rfemur 23.6119 12.8904 37.807
rtibia -4.45278e-014
rfoot -11.0207 -23.1483
rtoes -4.23707
lfemur -36.8305 -37.5562 -3.29779
ltibia 24.6674
lfoot -36.9169 34.5543
ltoes 21.7043
500
root 9.68365 15.2481 -10.8685 180.49 3.74177 -175.983
lowerback 4.32405 3.56724 5.81158
upperback -4.96522 5.43855 0.113233
thorax -7.1225 2.44903 -3.67626
lowerneck -4.65901 -3.19092 -9.10878
upperneck 13.318 -5.20997 9.26248
head 5.21964 -2.65173 4.06975
rclavicle 6.38596e-015 0
rhumerus -38.2443 14.822 -97.0926
rradius 37.2928
rwrist 12.2797
rhand 0.378317 -52.6964
rfingers 7.12502
rthumb 25.9527 -80.9446
lclavicle 6.38596e-015 0
lhumerus -50.9244 -1.0433 85.7664
lradius 35.9128
lwrist -11.4582
lhand -7.48542 -33.5359
lfingers 7.12502
lthumb 18.4039 -4.38653
rfemur 24.1479 12.561 37.62
rtibia 4.13472e-014
rfoot -10.5951 -22.5768
rtoes -4.40961
lfemur -36.105 -36.7156 -4.01656
ltibia 24.4876
lfoot -35.1305 34.5872
ltoes 19.5135
501
root 9.67094 15.2423 -11.0115 180.519 4.23073 -175.872
lowerback 4.23349 3.60885 5.9026
upperback -4.97996 5.5028 0.164286
thorax -7.07725 2.48068 -3.67177
lowerneck -5.64757 -3.36995 -8.34737
upperneck 14.1439 -5.36051 8.20972
head 5.61598 -2.7252 3.58303
rclavicle -6.03808e-015 -3.97569e-016
rhumerus -38.561 14.6966 -97.3529
rradius 36.8948
rwrist 12.5002
rhand 0.374989 -52.505
rfingers 7.12502
rthumb 25.9495 -80.7536
lclavicle -6.03808e-015 -3.97569e-016
lhumerus -51.1176 -1.17289 86.2835
lradius 35.7809
lwrist -11.2031
lhand -6.87886 -34.2113
lfingers 7.12502
lthumb 18.9873 -5.11809
rfemur 24.621 12.3944 37.5151
rtibia -6.04305e-014
rfoot -10.0075 -21.9452
rtoes -5.03468
lfemur -35.138 -34.9229 -5.05879
ltibia 24.3225
lfoot -32.4398 34.362
ltoes 15.5192
502
root 9.65786 15.236 -11.1564 180.589 4.7766 -175.902
lowerback 4.20627 3.71498 5.89294
upperback -5.01778 5.64539 0.149103
thorax -7.08718 2.55091 -3.69371
lowerneck -4.49403 -3.10885 -8.83413
upperneck 12.7205 -5.03923 9.11772
head 4.98238 -2.55481 3.99006
rclavicle -6.70898e-016 -1.66979e-014
rhumerus -38.6684 14.57 -97.5214
rradius 36.2117
rwrist 12.6661
rhand 0.326516 -52.1889
rfingers 7.12502
rthumb 25.9031 -80.4443
lclavicle -6.70898e-016 -1.66979e-014
lhumerus -51.2167 -1.37623 86.7982
lradius 35.6569
lwrist -10.3226
lhand -5.92824 -34.2656
lfingers 7.12502
lthumb 19.9013 -5.26456
rfemur 25.0923 12.308 37.2246
rtibia 1.90833e-014
rfoot -9.35756 -21.2079
rtoes -6.76143
lfemur -33.8881 -32.6658 -6.516
ltibia 24.1938
lfoot -30.5916 32.7161
ltoes 15.1347
503
root 9.64116 15.2312 -11.3053 180.701 5.16254 -176.002
lowerback 4.18848 3.8088 5.89729
upperback -4.9779 5.75805 0.0803248
thorax -7.01468 2.60568 -3.77295
lowerneck -5.3219 -3.21523 -8.78004
upperneck 12.986 -5.12337 9.101
head 5.21274 -2.56543 3.9592
rclavicle -6.48535e-015 2.127e-014
rhumerus -38.5387 14.2522 -97.4499
rradius 35.6538
rwrist 13.1192
rhand 1.15314 -52.3373
rfingers 7.12502
rthumb 26.6944 -80.4747
lclavicle -6.48535e-015 2.127e-014
lhumerus -50.9015 -1.58238 87.2502
lradius 35.5511
lwrist -8.91254
lhand -4.76513 -33.9362
lfingers 7.12502
lthumb 21.0191 -5.05529
rfemur 25.5135 12.0975 36.7985
rtibia 5.40694e-014
rfoot -8.77954 -20.3974
rtoes -8.54125
lfemur -32.8589 -30.5375 -7.94516
ltibia 24.1214
lfoot -28.553 31.1489
ltoes 14.1593
504
root 9.621 15.2289 -11.4572 180.787 5.5384 -176.129
lowerback 3.96024 3.75599 5.8079
upperback -5.05526 5.67446 0.056334
thorax -6.97963 2.57244 -3.72704
lowerneck -5.63796 -3.14461 -8.6303
upperneck 13.3792 -5.03654 8.94093
head 5.37247 -2.52241 3.88627
rclavicle -4.1869e-014 -5.76476e-015
rhumerus -38.9541 14.2558 -97.7256
rradius 35.2472
rwrist 13.5318
rhand 1.45949 -52.4809
rfingers 7.12502
rthumb 26.9876 -80.5732
lclavicle -4.1869e-014 -5.76476e-015
lhumerus -51.1735 -1.26547 87.2329
lradius 35.7118
lwrist -7.35403
lhand -3.24559 -33.1614
lfingers 7.12502
lthumb 22.4783 -4.44964
rfemur 25.9543 11.8848 36.3079
rtibia 1.01778e-013
rfoot -8.17035 -19.5437
rtoes -9.39599
lfemur -31.8646 -28.5299 -9.36263
ltibia 24.1299
lfoot -26.1858 29.9154
ltoes 10.6901
505
root 9.60507 15.23 -11.6148 180.743 6.1061 -176.325
lowerback 3.91201 3.76982 5.59199
upperback -4.97994 5.66363 0.0688967
thorax -6.8908 2.58079 -3.58584
lowerneck -5.8226 -2.99209 -8.87842
upperneck 13.167 -4.78509 9.19367
head 5.32675 -2.38384 4.02398
rclavicle 5.41688e-015 -1.90833e-014
rhumerus -39.1101 14.4318 -97.8654
rradius 34.7598
rwrist 13.7854
rhand 1.34313 -52.4845
rfingers 7.12502
rthumb 26.8762 -80.594
lclavicle 5.41688e-015 -1.90833e-014
lhumerus -51.0802 -0.760245 87.0961
lradius 35.5923
lwrist -5.90479
lhand -2.19858 -32.2144
lfingers 7.12502
lthumb 23.4829 -3.62764
rfemur 26.5546 11.8256 35.7762
rtibia 3.18055e-014
rfoot -7.30172 -18.5857
rtoes -10.0396
lfemur -30.835 -27.427 -10.4727
ltibia 24.1647
lfoot -24.6137 29.2968
ltoes 9.04899
506
root 9.59825 15.2415 -11.7812 180.697 7.02061 -176.472
lowerback 3.81403 3.99659 5.32237
upperback -4.88557 5.92853 0.0717004
thorax -6.73108 2.7299 -3.44088
lowerneck -6.58937 -3.04352 -8.97917
upperneck 13.3669 -4.79658 9.31813
head 5.52748 -2.35948 4.07212
rclavicle 6.4779e-014 9.93923e-015
rhumerus -39.2404 14.3867 -97.8631
rradius 34.3735
rwrist 13.9302
rhand 1.70017 -52.646
rfingers 7.12502
rthumb 27.2178 -80.7024
lclavicle 6.4779e-014 9.93923e-015
lhumerus -50.6178 -0.410216 86.8885
lradius 34.9984
lwrist -4.70997
lhand -1.84502 -31.5576
lfingers 7.12502
lthumb 23.822 -3.01466
rfemur 27.1935 12.1 35.3236
rtibia -8.5875e-014
rfoot -6.27039 -17.482
rtoes -10.8171
lfemur -29.946 -27.2387 -11.0046
ltibia 24.2409
lfoot -23.9405 29.4867
ltoes 10.9897
507
root 9.5904 15.2636 -11.9443 180.853 8.01372 -176.628
lowerback 3.55313 4.25485 5.038
upperback -4.97097 6.24641 0.0287694
thorax -6.66531 2.90499 -3.33433
lowerneck -6.58763 -2.83169 -9.12756
upperneck 13.331 -4.55299 9.73062
head 5.5032 -2.22592 4.24814
rclavicle -4.14715e-014 -5.36719e-015
rhumerus -39.6078 14.205 -97.9123
rradius 34.0547
rwrist 14.1629
rhand 2.12911 -52.8151
rfingers 7.12502
rthumb 27.6281 -80.8066
lclavicle -4.14715e-014 -5.36719e-015
lhumerus -50.4803 -0.259185 86.595
lradius 34.6057
lwrist -3.61582
lhand -1.41567 -30.8009
lfingers 7.12502
lthumb 24.2337 -2.31223
rfemur 27.5791 12.5215 34.7781
rtibia -2.22639e-014
rfoot -5.19133 -16.3361
rtoes -11.7621
lfemur -29.4947 -27.3472 -11.2372
ltibia 24.4045
lfoot -23.6804 30.1758
ltoes 13.3669
508
root 9.58171 15.2883 -12.1041 180.928 8.93352 -176.819
lowerback 3.37276 4.42157 4.70158
upperback -5.10931 6.4521 0.00988352
thorax -6.72322 3.02429 -3.1765
lowerneck -6.71739 -2.84227 -8.95276
upperneck 13.6573 -4.58796 9.52144
head 5.62174 -2.25015 4.14932
rclavicle -7.62836e-014 -1.03368e-014
rhumerus -40.0915 14.0257 -97.9763
rradius 33.7048
rwrist 14.5458
rhand 2.67128 -53.1067
rfingers 7.12502
rthumb 28.1464 -81.0141
lclavicle -7.62836e-014 -1.03368e-014
lhumerus -50.6885 0.0617968 86.1485
lradius 34.5841
lwrist -2.75796
lhand -0.919644 -30.2518
lfingers 7.12502
lthumb 24.7092 -1.82744
rfemur 28.0008 12.8606 34.1921
rtibia 4.77083e-014
rfoot -3.88965 -15.2098
rtoes -13.5385
lfemur -29.0597 -27.6863 -11.4706
ltibia 24.5947
lfoot -23.6731 30.9348
ltoes 16.2047
509
root 9.57869 15.3115 -12.2702 180.676 9.99621 -176.937
lowerback 3.41726 4.65166 4.38945
upperback -5.11586 6.74289 0.054473
thorax -6.77044 3.1825 -2.98604
lowerneck -6.31539 -2.78935 -8.8096
upperneck 13.3595 -4.51611 9.36676
head 5.4469 -2.22741 4.08311
rclavicle -4.92986e-014 -3.97569e-016
rhumerus -40.5388 13.8408 -98.0124
rradius 33.3572
rwrist 14.379
rhand 2.86726 -53.4061
rfingers 7.12502
rthumb 28.3337 -81.2825
lclavicle -4.92986e-014 -3.97569e-016
lhumerus -50.7372 0.499605 85.6182
lradius 34.4376
lwrist -2.16354
lhand -0.566432 -30.0693
lfingers 7.12502
lthumb 25.0477 -1.69167
rfemur 28.7579 13.2564 33.7783
rtibia 1.90833e-014
rfoot -2.45053 -14.0564
rtoes -16.2894
lfemur -28.0117 -27.7664 -11.9254
ltibia 24.6624
lfoot -22.7341 32.0345
ltoes 16.2288
510
root 9.5704 15.3349 -12.4405 180.238 11.0826 -177.271
lowerback 3.68145 4.92251 4.03039
upperback -5.12736 7.08538 0.00700455
thorax -6.94343 3.35902 -2.89372
lowerneck -7.02908 -2.91938 -8.46679
upperneck 14.261 -4.68752 8.81931
head 5.84774 -2.31895 3.83362
rclavicle 9.39258e-015 -9.14409e-015
rhumerus -41.0694 13.5168 -97.9679
rradius 33.0197
rwrist 14.1637
rhand 3.05739 -53.5988
rfingers 7.12502
rthumb 28.5154 -81.4449
lclavicle 9.39258e-015 -9.14409e-015
lhumerus -50.794 0.523797 85.2403
lradius 34.2267
lwrist -1.65649
lhand -0.32509 -29.8265
lfingers 7.12502
lthumb 25.279 -1.48142
rfemur 29.653 13.6721 33.1261
rtibia 4.13472e-014
rfoot -1.13503 -12.9349
rtoes -17.38
lfemur -26.5822 -27.2277 -12.9936
ltibia 24.7021
lfoot -20.3918 33.1088
ltoes 12.8012
511
root 9.52954 15.3574 -12.6207 180.39 10.1991 -177.855
lowerback 3.08641 4.53132 4.00512
upperback -5.29613 6.53957 -0.263087
thorax -6.79012 3.09674 -3.06955
lowerneck -6.51738 -2.58079 -8.66848
upperneck 14.0255 -4.2909 9.20023
head 5.65915 -2.13082 4.02472
rclavicle -5.58833e-014 -7.35503e-015
rhumerus -41.5751 13.5267 -97.9425
rradius 32.5
rwrist 14.3975
rhand 3.64563 -53.8286
rfingers 7.12502
rthumb 29.0773 -81.579
lclavicle -5.58833e-014 -7.35503e-015
lhumerus -50.9197 0.51175 84.8816
lradius 34.2503
lwrist -1.53547
lhand -0.0674516 -29.3344
lfingers 7.12502
lthumb 25.5258 -1.02436
rfemur 29.7432 12.3584 31.8825
rtibia 9.22361e-014
rfoot -0.0323471 -11.9986
rtoes -17.0286
lfemur -26.2741 -26.3698 -14.4754
ltibia 24.7065
lfoot -17.5492 31.879
ltoes 12.1093
512
root 9.48096 15.3565 -12.7933 179.582 8.92412 -178.267
lowerback 3.47666 3.96333 4.26703
upperback -5.1925 5.78618 -0.414375
thorax -6.92131 2.696 -3.34418
lowerneck -6.64458 -2.53514 -8.55197
upperneck 14.4711 -4.23094 8.85291
head 5.8052 -2.12327 3.89939
rclavicle -9.7156e-015 -7.95139e-016
rhumerus -42.0855 13.7285 -97.9111
rradius 31.8268
rwrist 14.8403
rhand 4.05438 -53.96
rfingers 7.12502
rthumb 29.4676 -81.6423
lclavicle -9.7156e-015 -7.95139e-016
lhumerus -51.0312 1.08059 84.2516
lradius 34.3055
lwrist -2.74525
lhand 0.20296 -28.8661
lfingers 7.12502
lthumb 25.7848 -0.593456
rfemur 30.9039 10.4531 31.0375
rtibia 3.18055e-014
rfoot 1.57873 -11.0524
rtoes -18.573
lfemur -24.801 -25.6672 -16.3124
ltibia 24.5715
lfoot -16.1934 29.7484
ltoes 17.1475
513
root 9.44763 15.355 -12.9656 178.851 7.6259 -178.603
lowerback 4.01691 3.43889 4.37039
upperback -5.24019 5.10612 -0.547254
thorax -7.32226 2.33348 -3.53253
lowerneck -6.841 -2.56135 -8.36691
upperneck 15.1378 -4.28839 8.42311
head 6.04097 -2.18033 3.727
rclavicle 3.09856e-014 -7.95139e-016
rhumerus -42.7997 13.4344 -97.7087
rradius 31.3343
rwrist 15.2134
rhand 4.30067 -54.222
rfingers 7.12502
rthumb 29.7027 -81.8627
lclavicle 3.09856e-014 -7.95139e-016
lhumerus -51.2922 1.65427 83.5311
lradius 34.2686
lwrist -5.49348
lhand 0.218869 -28.9532
lfingers 7.12502
lthumb 25.8 -0.682751
rfemur 32.0121 8.5425 30.2615
rtibia -3.18055e-014
rfoot 3.62805 -10.0796
rtoes -18.4685
lfemur -23.3327 -24.9313 -17.9198
ltibia 24.2986
lfoot -14.2072 27.7607
ltoes 18.9593
